<svg xmlns="http://www.w3.org/2000/svg" width="32" height="32" viewBox="0 0 32 32" fill="none">
  <path d="M15.9999 18.6668L13.3333 16.0002L15.9999 13.3335L18.6666 16.0002L15.9999 18.6668ZM13.1666 10.8335L9.83325 7.50016L15.9999 1.3335L22.1666 7.50016L18.8333 10.8335L15.9999 8.00016L13.1666 10.8335ZM7.49992 22.1668L1.33325 16.0002L7.49992 9.8335L10.8333 13.1668L7.99992 16.0002L10.8333 18.8335L7.49992 22.1668ZM24.4999 22.1668L21.1666 18.8335L23.9999 16.0002L21.1666 13.1668L24.4999 9.8335L30.6666 16.0002L24.4999 22.1668ZM15.9999 30.6668L9.83325 24.5002L13.1666 21.1668L15.9999 24.0002L18.8333 21.1668L22.1666 24.5002L15.9999 30.6668Z" fill="#9747FF"/>
</svg>