<svg xmlns="http://www.w3.org/2000/svg" width="37" height="36" viewBox="0 0 37 36" fill="none">
  <path d="M7.12123 30.6011L4.59448 2.25H32.3685L29.8384 30.5966L18.4646 33.75L7.12123 30.6011Z" fill="#1572B6"/>
  <path d="M18.4814 31.3402L27.6727 28.7921L29.8349 4.5686H18.4814V31.3402Z" fill="#33A9DC"/>
  <path d="M18.4814 14.8398H23.0827L23.3999 11.2791H18.4814V7.80176H27.2002L27.1169 8.73438L26.2631 18.3171H18.4814V14.8398Z" fill="white"/>
  <path d="M18.5028 23.8703L18.4871 23.8748L14.6148 22.8285L14.3673 20.0554H10.8765L11.3636 25.515L18.486 27.4928L18.5028 27.4883V23.8703Z" fill="#EBEBEB"/>
  <path d="M22.7869 18.1699L22.3684 22.8263L18.4905 23.8725V27.4905L25.6185 25.515L25.6714 24.9278L26.2755 18.1699H22.7869Z" fill="white"/>
  <path d="M18.4938 7.80176V11.2791H10.0946L10.0248 10.4973L9.86621 8.73438L9.78296 7.80176H18.4938ZM18.4815 14.8398V18.3171H14.6576L14.5878 17.5353L14.4303 15.7724L14.3471 14.8398H18.4815Z" fill="#EBEBEB"/>
</svg>