<svg width="37" height="36" viewBox="0 0 37 36" fill="none" xmlns="http://www.w3.org/2000/svg">
<g clip-path="url(#clip0_457_6833)">
<path d="M7.84213 28.658L1.68332 22.4992C0.952775 21.7503 0.500244 20.6916 0.500244 19.6567C0.500244 19.1776 0.770244 18.4286 0.97401 17.9999L6.65906 6.15869L7.84213 28.658Z" fill="#01579B"/>
<path d="M28.9227 7.34189L22.7639 1.18308C22.2267 0.643078 21.107 0 20.1595 0C19.3444 0 18.5451 0.164109 18.029 0.473766L6.66162 6.15881L28.9227 7.34189ZM15.1839 36H30.1058V29.6056L18.9739 26.0512L8.78956 29.6056L15.1839 36Z" fill="#40C4FF"/>
<path d="M6.65894 25.3419C6.65894 27.2422 6.89715 27.7081 7.84201 28.6581L8.78954 29.6057H30.1058L19.6859 17.7645L6.65894 6.15869V25.3419Z" fill="#29B6F6"/>
<path d="M25.6065 6.15625H6.65894L30.1058 29.6031H36.5001V14.9194L28.92 7.33933C27.856 6.27269 26.9112 6.15625 25.6065 6.15625Z" fill="#01579B"/>
<path opacity="0.2" d="M8.08024 28.8937C7.13271 27.9436 6.89716 27.0066 6.89716 25.3419V6.39424L6.66161 6.15869V25.3418C6.6588 27.0065 6.6588 27.467 8.08024 28.8935L8.78955 29.6028L8.08024 28.8937Z" fill="white"/>
<path opacity="0.2" d="M36.2647 14.6838V29.3675H29.8704L30.1059 29.6057H36.5003V14.9194L36.2647 14.6838Z" fill="#263238"/>
<path opacity="0.2" d="M28.9227 7.34177C27.7476 6.16657 26.7869 6.15869 25.3709 6.15869H6.66162L6.89717 6.39424H25.3709C26.0776 6.39424 27.8614 6.27513 28.9227 7.34177Z" fill="white"/>
<path opacity="0.2" d="M36.2646 14.6838L28.9227 7.34175L22.7639 1.18322C22.2267 0.643078 21.1071 0 20.1595 0C19.3445 0 18.5452 0.164109 18.0291 0.473766L6.66164 6.15881L0.976592 18C0.772686 18.4314 0.502686 19.1804 0.502686 19.6568C0.502686 20.6917 0.958029 21.7477 1.6859 22.4993L7.36026 28.1341C7.49526 28.3008 7.65417 28.4702 7.84204 28.6581L8.07759 28.8937L8.7869 29.603L14.9457 35.7618L15.1813 35.9973H30.1003V29.6031H36.4947V14.9192L36.2646 14.6838Z" fill="url(#paint0_radial_457_6833)"/>
</g>
<defs>
<radialGradient id="paint0_radial_457_6833" cx="0" cy="0" r="1" gradientUnits="userSpaceOnUse" gradientTransform="translate(1800.1 1799.67) scale(1799.74 1799.74)">
<stop stop-color="white" stop-opacity="0.1"/>
<stop offset="1" stop-color="white" stop-opacity="0"/>
</radialGradient>
<clipPath id="clip0_457_6833">
<rect width="36" height="36" fill="white" transform="translate(0.500244)"/>
</clipPath>
</defs>
</svg>
