<svg xmlns="http://www.w3.org/2000/svg" width="20" height="20" viewBox="0 0 20 20" fill="none">
  <path d="M4.16675 3.33333H15.8334C17.2141 3.33333 18.3333 4.4525 18.3334 5.83311C18.2303 5.83308 18.1255 5.8523 18.0239 5.89293L10.6191 8.85487C10.2217 9.01381 9.77845 9.01381 9.3811 8.85487L1.97624 5.89293C1.87467 5.8523 1.76984 5.83307 1.66675 5.83311C1.66687 4.4525 2.78611 3.33333 4.16675 3.33333Z" fill="white"/>
  <path d="M1.66675 7.56419V14.1667C1.66675 15.5474 2.78604 16.6667 4.16675 16.6667H15.8334C17.2141 16.6667 18.3334 15.5474 18.3334 14.1667V7.56419L11.2381 10.4023C10.4433 10.7202 9.55682 10.7202 8.76211 10.4023L1.66675 7.56419Z" fill="white"/>
</svg>