<svg width="37" height="36" viewBox="0 0 37 36" fill="none" xmlns="http://www.w3.org/2000/svg">
<g clip-path="url(#clip0_662_5694)">
<path d="M28.0439 0H8.91895C4.25904 0 0.481445 3.7776 0.481445 8.4375V27.5625C0.481445 32.2224 4.25904 36 8.91895 36H28.0439C32.7038 36 36.4814 32.2224 36.4814 27.5625V8.4375C36.4814 3.7776 32.7038 0 28.0439 0Z" fill="#F4F2ED"/>
<path d="M32.5439 25.7256C32.1346 25.8806 31.6826 25.8803 31.2734 25.7247C30.8642 25.5691 30.5262 25.269 30.3233 24.8811C29.0489 22.9733 27.6415 21.1515 26.2888 19.2906L25.7023 18.5087C24.0915 20.6667 22.4808 22.7387 21.0109 24.889C20.8194 25.2597 20.4997 25.5482 20.1113 25.7007C19.7229 25.8532 19.2924 25.8593 18.8998 25.7178L24.9439 17.6095L19.322 10.283C19.7266 10.1368 20.1694 10.1348 20.5754 10.2773C20.9814 10.4197 21.3258 10.6979 21.5504 11.0649C22.8561 12.9729 24.3028 14.7947 25.7414 16.726C27.188 14.8103 28.6188 12.9806 29.9559 11.0883C30.1484 10.7236 30.4683 10.4424 30.8547 10.2983C31.2411 10.1541 31.667 10.157 32.0513 10.3065L29.8698 13.1995C28.8925 14.4896 27.9307 15.7876 26.9143 17.0465C26.8323 17.1198 26.7668 17.2096 26.7219 17.31C26.677 17.4103 26.6538 17.5191 26.6538 17.629C26.6538 17.739 26.677 17.8477 26.7219 17.9481C26.7668 18.0485 26.8323 18.1382 26.9143 18.2116C28.7831 20.6902 30.6361 23.1766 32.5439 25.7256ZM4.41895 17.5079C4.5832 16.726 4.68473 15.8737 4.91155 15.0762C6.26423 10.2675 11.7766 8.26571 15.5688 11.2449C17.7894 12.9886 18.3446 15.4594 18.2352 18.2429H5.72479C5.52145 23.2158 9.11034 26.2183 13.7001 24.6858C14.4446 24.4194 15.1111 23.9719 15.6393 23.3835C16.1676 22.7952 16.5411 22.0845 16.726 21.3157C16.9685 20.5338 17.3594 20.4009 18.1022 20.6276C17.9799 21.5795 17.6433 22.4913 17.1179 23.2944C16.5924 24.0975 15.8917 24.771 15.0685 25.2643C13.7083 26.0082 12.1477 26.3029 10.6099 26.1063C9.07217 25.9097 7.63594 25.2318 6.50666 24.1697C5.38944 22.9135 4.71392 21.3263 4.5832 19.6503C4.5832 19.3845 4.48152 19.1186 4.42682 18.8684C4.42165 18.4149 4.41902 17.9614 4.41895 17.5079ZM5.7404 17.1716H17.0545C16.9841 13.5671 14.7088 11.0103 11.6751 10.9869C8.29724 10.94 5.88116 13.442 5.73252 17.156L5.7404 17.1716Z" fill="#0F0F0F"/>
</g>
<defs>
<clipPath id="clip0_662_5694">
<rect width="36" height="36" fill="white" transform="translate(0.481445)"/>
</clipPath>
</defs>
</svg>
