<svg xmlns="http://www.w3.org/2000/svg" width="20" height="20" viewBox="0 0 20 20" fill="none">
  <path d="M10.0001 1.66667C8.90573 1.66667 7.8221 1.88222 6.81105 2.30101C5.80001 2.7198 4.88135 3.33363 4.10752 4.10745C2.54472 5.67025 1.66675 7.78987 1.66675 10C1.66675 13.6833 4.05841 16.8083 7.36675 17.9167C7.78342 17.9833 7.91675 17.725 7.91675 17.5V16.0917C5.60841 16.5917 5.11675 14.975 5.11675 14.975C4.73341 14.0083 4.19175 13.75 4.19175 13.75C3.43341 13.2333 4.25008 13.25 4.25008 13.25C5.08341 13.3083 5.52508 14.1083 5.52508 14.1083C6.25008 15.375 7.47508 15 7.95008 14.8C8.02508 14.2583 8.24175 13.8917 8.47508 13.6833C6.62508 13.475 4.68341 12.7583 4.68341 9.58334C4.68341 8.65834 5.00008 7.91667 5.54175 7.32501C5.45842 7.11667 5.16675 6.25001 5.62508 5.12501C5.62508 5.12501 6.32508 4.90001 7.91675 5.97501C8.57508 5.79167 9.29175 5.70001 10.0001 5.70001C10.7084 5.70001 11.4251 5.79167 12.0834 5.97501C13.6751 4.90001 14.3751 5.12501 14.3751 5.12501C14.8334 6.25001 14.5417 7.11667 14.4584 7.32501C15.0001 7.91667 15.3167 8.65834 15.3167 9.58334C15.3167 12.7667 13.3667 13.4667 11.5084 13.675C11.8084 13.9333 12.0834 14.4417 12.0834 15.2167V17.5C12.0834 17.725 12.2167 17.9917 12.6417 17.9167C15.9501 16.8 18.3334 13.6833 18.3334 10C18.3334 8.90566 18.1179 7.82202 17.6991 6.81098C17.2803 5.79993 16.6665 4.88127 15.8926 4.10745C15.1188 3.33363 14.2002 2.7198 13.1891 2.30101C12.1781 1.88222 11.0944 1.66667 10.0001 1.66667Z" fill="white"/>
</svg>