<svg xmlns="http://www.w3.org/2000/svg" width="20" height="20" viewBox="0 0 20 20" fill="none">
  <path d="M17.3581 6.675L11.8998 2.30833C10.8331 1.45833 9.16647 1.45 8.10814 2.3L2.64981 6.675C1.86647 7.3 1.39147 8.55 1.55814 9.53333L2.60814 15.8167C2.84981 17.225 4.15814 18.3333 5.58314 18.3333H14.4165C15.8248 18.3333 17.1581 17.2 17.3998 15.8083L18.4498 9.525C18.5998 8.55 18.1248 7.3 17.3581 6.675ZM10.6248 15C10.6248 15.3417 10.3415 15.625 9.99981 15.625C9.65814 15.625 9.37481 15.3417 9.37481 15V12.5C9.37481 12.1583 9.65814 11.875 9.99981 11.875C10.3415 11.875 10.6248 12.1583 10.6248 12.5V15Z" fill="white"/>
</svg>