<svg xmlns="http://www.w3.org/2000/svg" width="37" height="36" viewBox="0 0 37 36" fill="none">
  <path d="M6.93461 30.6011L4.40674 2.25H32.183L29.6517 30.5966L18.278 33.75L6.93461 30.6011Z" fill="#E44F26"/>
  <path d="M18.2949 31.3402L27.4862 28.7921L29.6484 4.5686H18.2949V31.3402Z" fill="#F1662A"/>
  <path d="M18.2949 15.0829H13.6937L13.3764 11.5223H18.2949V8.04492H9.57617L9.65942 8.97867L10.5133 18.5603H18.2949V15.0829ZM18.2949 24.1133L18.2792 24.1178L14.4069 23.0727L14.1594 20.2995H10.6685L11.1557 25.758L18.2792 27.7358L18.2949 27.7313V24.1133Z" fill="#EBEBEB"/>
  <path d="M18.2825 15.0829V18.5603H22.5642L22.1615 23.0704L18.2825 24.1167V27.7347L25.4116 25.758L25.4633 25.1708L26.2801 16.0167L26.3656 15.0829H25.4285H18.2825ZM18.2825 8.04492V11.5223H26.6817L26.7515 10.7415L26.9101 8.97867L26.9933 8.04492H18.2825Z" fill="white"/>
</svg>