<svg xmlns="http://www.w3.org/2000/svg" width="32" height="32" viewBox="0 0 32 32" fill="none">
  <path d="M18.6667 4V9.33333C18.6667 9.68695 18.8072 10.0261 19.0573 10.2761C19.3073 10.5262 19.6465 10.6667 20.0001 10.6667H25.3334" stroke="#9747FF" stroke-width="2" stroke-linecap="round" stroke-linejoin="round"/>
  <path d="M6.66675 16V6.66667C6.66675 5.95942 6.9477 5.28115 7.4478 4.78105C7.94789 4.28095 8.62617 4 9.33341 4H18.6667L25.3334 10.6667V16M2.66675 28V20M6.66675 20V28M2.66675 24H6.66675M26.6667 20V28H29.3334M17.3334 28V20L20.0001 24L22.6667 20V28M10.0001 20H14.0001M12.0001 20V28" stroke="#9747FF" stroke-width="2" stroke-linecap="round" stroke-linejoin="round"/>
</svg>