<svg xmlns="http://www.w3.org/2000/svg" width="37" height="36" viewBox="0 0 37 36" fill="none">
  <g clip-path="url(#clip0_540_72)">
    <path d="M0.925781 0H36.9258V36H0.925781V0Z" fill="#F7DF1E"/>
    <path d="M10.3917 30.0842L13.1466 28.4169C13.6781 29.3592 14.1616 30.1566 15.3214 30.1566C16.433 30.1566 17.134 29.7218 17.134 28.0303V16.5275H20.517V28.0781C20.517 31.5821 18.4631 33.1771 15.4663 33.1771C12.76 33.1771 11.1891 31.7755 10.3916 30.0839M22.3546 29.7216L25.1091 28.1268C25.8343 29.311 26.7768 30.1809 28.4441 30.1809C29.8459 30.1809 30.7398 29.48 30.7398 28.5134C30.7398 27.3535 29.8215 26.9426 28.2749 26.2662L27.4293 25.9034C24.9885 24.8646 23.3695 23.5596 23.3695 20.8047C23.3695 18.2673 25.3026 16.334 28.3234 16.334C30.4741 16.334 32.0207 17.0832 33.1322 19.0406L30.498 20.7323C29.9179 19.6932 29.2899 19.2825 28.3233 19.2825C27.3324 19.2825 26.7041 19.9108 26.7041 20.7323C26.7041 21.7472 27.3324 22.1582 28.7823 22.7866L29.628 23.149C32.5038 24.3815 34.1228 25.638 34.1228 28.4651C34.1228 31.5102 31.7305 33.1775 28.5165 33.1775C25.3751 33.1775 23.3451 31.6793 22.3544 29.7218" fill="black"/>
  </g>
  <defs>
    <clipPath id="clip0_540_72">
      <rect width="36" height="36" fill="white" transform="translate(0.925781)"/>
    </clipPath>
  </defs>
</svg>