<svg xmlns="http://www.w3.org/2000/svg" width="20" height="20" viewBox="0 0 20 20" fill="none">
  <path d="M5.56089 4.05541C5.56068 4.46794 5.39661 4.8635 5.10475 5.15506C4.8129 5.44662 4.41718 5.61031 4.00464 5.6101C3.59211 5.60989 3.19655 5.44582 2.90499 5.15396C2.61343 4.86211 2.44975 4.46639 2.44995 4.05385C2.45016 3.64132 2.61423 3.24576 2.90609 2.9542C3.19794 2.66264 3.59366 2.49895 4.0062 2.49916C4.41873 2.49937 4.81429 2.66344 5.10585 2.9553C5.39741 3.24715 5.5611 3.64287 5.56089 4.05541ZM5.60755 6.76192H2.49662V16.4992H5.60755V6.76192ZM10.5228 6.76192H7.42745V16.4992H10.4917V11.3894C10.4917 8.54294 14.2015 8.27851 14.2015 11.3894V16.4992H17.2736V10.3317C17.2736 5.5331 11.7828 5.71198 10.4917 8.06852L10.5228 6.76192Z" fill="#F9FAFB"/>
</svg>