<svg xmlns="http://www.w3.org/2000/svg" width="32" height="32" viewBox="0 0 32 32" fill="none">
  <path d="M1.33325 4.00016V6.66683H30.6666V4.00016C30.6662 3.29303 30.3852 2.61496 29.8851 2.11493C29.3851 1.61491 28.7071 1.33385 27.9999 1.3335H3.99992C3.29278 1.33385 2.61471 1.61491 2.11469 2.11493C1.61467 2.61496 1.33361 3.29303 1.33325 4.00016ZM5.34259 5.34416C5.07882 5.34443 4.8209 5.26645 4.60146 5.1201C4.38202 4.97376 4.21092 4.76561 4.1098 4.522C4.00867 4.27839 3.98208 4.01026 4.03338 3.75153C4.08467 3.4928 4.21155 3.2551 4.39797 3.06849C4.58439 2.88189 4.82196 2.75477 5.08064 2.70321C5.33932 2.65166 5.60748 2.67799 5.85119 2.77886C6.0949 2.87974 6.30322 3.05064 6.44979 3.26993C6.59635 3.48923 6.67459 3.74706 6.67459 4.01083C6.67459 4.36445 6.53411 4.70359 6.28406 4.95364C6.03401 5.20369 5.69621 5.34416 5.34259 5.34416ZM9.33725 5.34283C9.07354 5.34283 8.81576 5.26463 8.59649 5.11812C8.37723 4.97161 8.20633 4.76338 8.10541 4.51974C8.0045 4.27611 7.97809 4.00802 8.02954 3.74938C8.08099 3.49073 8.20797 3.25316 8.39444 3.06669C8.58091 2.88022 8.81849 2.75323 9.07713 2.70178C9.33577 2.65034 9.60386 2.67674 9.8475 2.77766C10.0911 2.87857 10.2994 3.04947 10.4459 3.26874C10.5924 3.488 10.6706 3.74579 10.6706 4.0095C10.6699 4.3629 10.5292 4.70163 10.2793 4.95153C10.0294 5.20142 9.69066 5.34212 9.33725 5.34283ZM1.33325 8.00016V26.6668C1.33325 27.3741 1.6142 28.0524 2.1143 28.5524C2.6144 29.0525 3.29267 29.3335 3.99992 29.3335H27.9999C28.7072 29.3335 29.3854 29.0525 29.8855 28.5524C30.3856 28.0524 30.6666 27.3741 30.6666 26.6668V8.00016H1.33325ZM27.9999 26.6668H3.99992V10.6668H27.9999V26.6668Z" fill="#9747FF"/>
  <path d="M12.0001 24.0002L12.9334 23.0668L13.8667 22.1335L12.1334 20.4002L10.4001 18.6668L12.1334 16.9335L13.8667 15.2002L12.9334 14.2668L12.0001 13.3335L9.33341 16.0002L6.66675 18.6668L9.33341 21.3335L12.0001 24.0002ZM18.1334 22.1335L19.0667 23.0668L20.0001 24.0002L22.6667 21.3335L25.3334 18.6668L22.6667 16.0002L20.0001 13.3335L19.0667 14.2668L18.1334 15.2002L19.8667 16.9335L21.6001 18.6668L19.8667 20.4002L18.1334 22.1335Z" fill="#9747FF"/>
  <path d="M12.0001 24.0002L12.9334 23.0668L13.8667 22.1335L12.1334 20.4002L10.4001 18.6668L12.1334 16.9335L13.8667 15.2002L12.9334 14.2668L12.0001 13.3335L9.33341 16.0002L6.66675 18.6668L9.33341 21.3335L12.0001 24.0002ZM18.1334 22.1335L19.0667 23.0668L20.0001 24.0002L22.6667 21.3335L25.3334 18.6668L22.6667 16.0002L20.0001 13.3335L19.0667 14.2668L18.1334 15.2002L19.8667 16.9335L21.6001 18.6668L19.8667 20.4002L18.1334 22.1335Z" fill="#9747FF"/>
</svg>