<svg width="60" height="36" viewBox="0 0 60 36" fill="none" xmlns="http://www.w3.org/2000/svg">
<g clip-path="url(#clip0_662_5668)">
<path d="M29.9635 35.8962C29.7648 35.8962 29.5793 35.8433 29.4069 35.7505L27.6447 34.7038C27.3796 34.5579 27.5121 34.505 27.5917 34.4785C27.9494 34.3592 28.0157 34.3326 28.3867 34.1208C28.4265 34.0942 28.4795 34.1075 28.5192 34.134L29.8708 34.9422C29.9238 34.9687 29.9901 34.9687 30.0297 34.9422L35.3168 31.8813C35.3698 31.8548 35.3964 31.8017 35.3964 31.7356V25.6271C35.3964 25.5607 35.3698 25.5078 35.3168 25.4812L30.0297 22.4336C29.9768 22.407 29.9105 22.407 29.8708 22.4336L24.5837 25.4812C24.5308 25.5077 24.5042 25.574 24.5042 25.6269V31.7355C24.5042 31.7886 24.5308 31.8547 24.5837 31.8813L26.0281 32.7161C26.8099 33.1136 27.3001 32.6498 27.3001 32.1861V26.157C27.3001 26.0775 27.3664 25.998 27.4592 25.998H28.1349C28.2145 25.998 28.2939 26.0642 28.2939 26.157V32.1861C28.2939 33.2328 27.7241 33.8424 26.7303 33.8424C26.4256 33.8424 26.1871 33.8424 25.5113 33.5111L24.12 32.7161C23.7755 32.5174 23.5635 32.1463 23.5635 31.7488V25.6402C23.5635 25.2428 23.7755 24.8716 24.12 24.6729L29.4069 21.612C29.7383 21.4265 30.1889 21.4265 30.5201 21.612L35.807 24.6729C36.1516 24.8716 36.3637 25.2428 36.3637 25.6402V31.7488C36.3637 32.1463 36.1516 32.5174 35.807 32.7161L30.5201 35.777C30.3478 35.8566 30.149 35.8962 29.9635 35.8962ZM31.5934 31.6958C29.2746 31.6958 28.7976 30.6358 28.7976 29.7347C28.7976 29.6552 28.8638 29.5757 28.9566 29.5757H29.6456C29.7251 29.5757 29.7914 29.6287 29.7914 29.7082C29.8974 30.4105 30.2022 30.755 31.6067 30.755C32.7197 30.755 33.1969 30.5032 33.1969 29.9069C33.1969 29.5624 33.0643 29.3108 31.3285 29.1384C29.8841 28.9926 28.9831 28.6747 28.9831 27.5219C28.9831 26.4485 29.8842 25.8124 31.3947 25.8124C33.0908 25.8124 33.9256 26.3956 34.0317 27.6675C34.0317 27.7074 34.0184 27.747 33.9919 27.7868C33.9653 27.8133 33.9256 27.8398 33.8858 27.8398H33.1968C33.1305 27.8398 33.0643 27.7868 33.0511 27.7206C32.8921 26.9918 32.4813 26.7533 31.3947 26.7533C30.1757 26.7533 30.0298 27.1774 30.0298 27.4953C30.0298 27.8796 30.2022 27.9988 31.8452 28.2108C33.4751 28.4229 34.2437 28.7276 34.2437 29.8671C34.2304 31.0332 33.2764 31.6958 31.5934 31.6958Z" fill="#539E43"/>
<path d="M13.5591 12.0052C13.5591 11.7668 13.4266 11.5414 13.2146 11.4221L7.59632 8.189C7.50346 8.13591 7.39752 8.10943 7.29158 8.09613H7.2385C7.13257 8.09613 7.02651 8.13591 6.93376 8.189L1.31547 11.4221C1.10337 11.5414 0.970947 11.7666 0.970947 12.0052L0.984247 20.6976C0.984247 20.8169 1.05051 20.9361 1.15645 20.9892C1.2625 21.0554 1.39492 21.0554 1.48779 20.9892L4.82696 19.0811C5.03895 18.9618 5.17148 18.7365 5.17148 18.4981V14.4301C5.17148 14.1916 5.3039 13.9663 5.51601 13.8471L6.93376 13.0255C7.03981 12.9592 7.15905 12.9326 7.27829 12.9326C7.39752 12.9326 7.51676 12.9592 7.60962 13.0255L9.02738 13.8471C9.23948 13.9663 9.3719 14.1915 9.3719 14.4301V18.4981C9.3719 18.7365 9.50444 18.9618 9.71642 19.0811L13.0556 20.9892C13.1072 21.0217 13.1669 21.0389 13.2279 21.0389C13.2888 21.0389 13.3485 21.0217 13.4001 20.9892C13.5062 20.9361 13.5724 20.8169 13.5724 20.6976L13.5591 12.0052ZM40.5641 0.0398121C40.4581 -0.0132707 40.3256 -0.0132707 40.2327 0.0398121C40.1268 0.10608 40.0605 0.212016 40.0605 0.331252V8.94431C40.0605 9.02376 40.0209 9.10321 39.9413 9.1563C39.8618 9.19596 39.7823 9.19596 39.7028 9.1563L38.2983 8.34802C38.1953 8.28938 38.0788 8.25855 37.9603 8.25855C37.8418 8.25855 37.7254 8.28938 37.6224 8.34802L32.0041 11.5944C31.7921 11.7137 31.6596 11.939 31.6596 12.1774V18.657C31.6596 18.8954 31.7921 19.1208 32.0041 19.2401L37.6224 22.4865C37.7254 22.5451 37.8418 22.576 37.9603 22.576C38.0788 22.576 38.1953 22.5451 38.2983 22.4865L43.9165 19.2401C44.1285 19.1208 44.2611 18.8956 44.2611 18.657V2.50444C44.2611 2.25267 44.1285 2.02749 43.9165 1.90814L40.5641 0.0398121ZM40.0473 16.5237C40.0473 16.59 40.0209 16.6429 39.9678 16.6694L38.0465 17.7824C38.0196 17.7955 37.9902 17.8023 37.9603 17.8023C37.9305 17.8023 37.901 17.7955 37.8742 17.7824L35.9529 16.6694C35.8998 16.6429 35.8733 16.5767 35.8733 16.5237V14.2975C35.8733 14.2313 35.8998 14.1783 35.9529 14.1518L37.8742 13.0387C37.901 13.0256 37.9305 13.0188 37.9603 13.0188C37.9902 13.0188 38.0196 13.0256 38.0465 13.0387L39.9678 14.1518C40.0209 14.1782 40.0473 14.2446 40.0473 14.2975V16.5237ZM59.2608 14.2446C59.4729 14.1253 59.5921 13.9 59.5921 13.6615V12.0847C59.5921 11.8462 59.4596 11.6209 59.2608 11.5017L53.6823 8.26856C53.5793 8.20993 53.4629 8.1791 53.3444 8.1791C53.2259 8.1791 53.1094 8.20993 53.0064 8.26856L47.3881 11.5149C47.176 11.6341 47.0436 11.8594 47.0436 12.0979V18.5775C47.0436 18.816 47.1761 19.0413 47.3881 19.1605L52.9666 22.3407C53.1787 22.4599 53.4305 22.4599 53.6293 22.3407L57.0082 20.4593C57.1142 20.4062 57.1805 20.2869 57.1805 20.1677C57.1805 20.0485 57.1142 19.9292 57.0082 19.8762L51.3634 16.6297C51.2573 16.5635 51.1911 16.4575 51.1911 16.3383V14.3109C51.1911 14.1917 51.2573 14.0725 51.3634 14.0194L53.1257 13.0123C53.1772 12.9798 53.237 12.9626 53.2979 12.9626C53.3589 12.9626 53.4186 12.9798 53.4702 13.0123L55.2326 14.0194C55.3386 14.0857 55.4048 14.1916 55.4048 14.3109V15.901C55.4048 16.0203 55.4711 16.1395 55.5771 16.1925C55.6287 16.2249 55.6884 16.2422 55.7494 16.2422C55.8103 16.2422 55.87 16.2249 55.9216 16.1925L59.2608 14.2446Z" fill="#DADADA"/>
<path d="M53.2582 13.9398C53.2778 13.9268 53.3009 13.9199 53.3244 13.9199C53.348 13.9199 53.371 13.9268 53.3907 13.9398L54.464 14.5626C54.5037 14.5892 54.5302 14.6288 54.5302 14.6818V15.9275C54.5302 15.9805 54.5038 16.0202 54.464 16.0467L53.3907 16.6695C53.371 16.6825 53.348 16.6894 53.3244 16.6894C53.3009 16.6894 53.2778 16.6825 53.2582 16.6695L52.1849 16.0467C52.1451 16.0202 52.1187 15.9805 52.1187 15.9275V14.6819C52.1187 14.6288 52.145 14.5891 52.1849 14.5627L53.2582 13.9398Z" fill="#539E43"/>
<path d="M22.9538 8.295C22.8508 8.23639 22.7344 8.20557 22.6159 8.20557C22.4974 8.20557 22.381 8.23639 22.278 8.295L16.6995 11.5147C16.4874 11.6339 16.3682 11.8592 16.3682 12.0977V18.5509C16.3682 18.7893 16.5007 19.0146 16.6995 19.1339L22.278 22.3538C22.381 22.4124 22.4974 22.4432 22.6159 22.4432C22.7344 22.4432 22.8508 22.4124 22.9538 22.3538L28.5324 19.1339C28.7444 19.0146 28.8637 18.7893 28.8637 18.5509V12.0978C28.8637 11.8593 28.7311 11.6341 28.5324 11.5148L22.9538 8.295Z" fill="url(#paint0_linear_662_5668)"/>
<mask id="mask0_662_5668" style="mask-type:luminance" maskUnits="userSpaceOnUse" x="16" y="8" width="13" height="15">
<path d="M22.9538 8.295C22.8508 8.23639 22.7344 8.20557 22.6159 8.20557C22.4974 8.20557 22.381 8.23639 22.278 8.295L16.6995 11.5147C16.4874 11.6339 16.3682 11.8592 16.3682 12.0977V18.5509C16.3682 18.7893 16.5007 19.0146 16.6995 19.1339L22.278 22.3538C22.381 22.4124 22.4974 22.4432 22.6159 22.4432C22.7344 22.4432 22.8508 22.4124 22.9538 22.3538L28.5324 19.1339C28.7444 19.0146 28.8637 18.7893 28.8637 18.5509V12.0978C28.8637 11.8593 28.7311 11.6341 28.5324 11.5148L22.9538 8.295Z" fill="white"/>
</mask>
<g mask="url(#mask0_662_5668)">
<path d="M28.5455 11.5148L22.9405 8.29503C22.8854 8.26722 22.8277 8.24502 22.7682 8.22876L16.4873 18.9884C16.5393 19.0519 16.6022 19.1058 16.6729 19.1474L22.2779 22.3674C22.4369 22.4601 22.6224 22.4866 22.7946 22.4335L28.6913 11.6475C28.6515 11.5945 28.5984 11.5545 28.5455 11.5148Z" fill="url(#paint1_linear_662_5668)"/>
</g>
<mask id="mask1_662_5668" style="mask-type:luminance" maskUnits="userSpaceOnUse" x="16" y="8" width="13" height="15">
<path d="M22.9538 8.295C22.8508 8.23639 22.7344 8.20557 22.6159 8.20557C22.4974 8.20557 22.381 8.23639 22.278 8.295L16.6995 11.5147C16.4874 11.6339 16.3682 11.8592 16.3682 12.0977V18.5509C16.3682 18.7893 16.5007 19.0146 16.6995 19.1339L22.278 22.3538C22.381 22.4124 22.4974 22.4432 22.6159 22.4432C22.7344 22.4432 22.8508 22.4124 22.9538 22.3538L28.5324 19.1339C28.7444 19.0146 28.8637 18.7893 28.8637 18.5509V12.0978C28.8637 11.8593 28.7311 11.6341 28.5324 11.5148L22.9538 8.295Z" fill="white"/>
</mask>
<g mask="url(#mask1_662_5668)">
<path fill-rule="evenodd" clip-rule="evenodd" d="M28.5589 19.134C28.718 19.0412 28.8372 18.8822 28.8903 18.71L22.7417 8.21543C22.5827 8.18894 22.4104 8.20213 22.2648 8.29488L16.6995 11.5016L22.7019 22.4467C22.7892 22.4324 22.874 22.4056 22.9537 22.3672L28.5589 19.134Z" fill="url(#paint2_linear_662_5668)"/>
<path fill-rule="evenodd" clip-rule="evenodd" d="M28.5589 19.1338L22.9671 22.3537C22.8882 22.394 22.8031 22.4208 22.7153 22.4332L22.8214 22.632L29.0227 19.0412V18.9616L28.8636 18.6965C28.8372 18.882 28.7179 19.0411 28.5589 19.1338Z" fill="url(#paint3_linear_662_5668)"/>
<path fill-rule="evenodd" clip-rule="evenodd" d="M28.5589 19.1338L22.9671 22.3537C22.8882 22.394 22.8031 22.4208 22.7153 22.4332L22.8214 22.632L29.0227 19.0412V18.9616L28.8636 18.6965C28.8372 18.882 28.7179 19.0411 28.5589 19.1338Z" fill="url(#paint4_linear_662_5668)"/>
</g>
</g>
<defs>
<linearGradient id="paint0_linear_662_5668" x1="868.415" y1="257.18" x2="256.956" y2="1217.96" gradientUnits="userSpaceOnUse">
<stop stop-color="#41873F"/>
<stop offset="0.3288" stop-color="#418B3D"/>
<stop offset="0.6352" stop-color="#419637"/>
<stop offset="0.9319" stop-color="#3FA92D"/>
<stop offset="1" stop-color="#3FAE2A"/>
</linearGradient>
<linearGradient id="paint1_linear_662_5668" x1="544.64" y1="793.384" x2="2076.01" y2="-38.6147" gradientUnits="userSpaceOnUse">
<stop offset="0.1376" stop-color="#41873F"/>
<stop offset="0.4032" stop-color="#54A044"/>
<stop offset="0.7136" stop-color="#66B848"/>
<stop offset="0.9081" stop-color="#6CC04A"/>
</linearGradient>
<linearGradient id="paint2_linear_662_5668" x1="-36.806" y1="720.325" x2="1254.06" y2="720.325" gradientUnits="userSpaceOnUse">
<stop offset="0.09192" stop-color="#6CC04A"/>
<stop offset="0.2864" stop-color="#66B848"/>
<stop offset="0.5968" stop-color="#54A044"/>
<stop offset="0.8624" stop-color="#41873F"/>
</linearGradient>
<linearGradient id="paint3_linear_662_5668" x1="-632.371" y1="216.552" x2="658.476" y2="216.552" gradientUnits="userSpaceOnUse">
<stop offset="0.09192" stop-color="#6CC04A"/>
<stop offset="0.2864" stop-color="#66B848"/>
<stop offset="0.5968" stop-color="#54A044"/>
<stop offset="0.8624" stop-color="#41873F"/>
</linearGradient>
<linearGradient id="paint4_linear_662_5668" x1="846.536" y1="-811.958" x2="519.514" y2="901.627" gradientUnits="userSpaceOnUse">
<stop stop-color="#41873F"/>
<stop offset="0.3288" stop-color="#418B3D"/>
<stop offset="0.6352" stop-color="#419637"/>
<stop offset="0.9319" stop-color="#3FA92D"/>
<stop offset="1" stop-color="#3FAE2A"/>
</linearGradient>
<clipPath id="clip0_662_5668">
<rect width="58.7006" height="36" fill="white" transform="translate(0.94458)"/>
</clipPath>
</defs>
</svg>
