<svg width="37" height="36" viewBox="0 0 37 36" fill="none" xmlns="http://www.w3.org/2000/svg">
<path d="M27.3097 25.9064C27.5305 24.069 27.4644 23.7993 28.8329 24.0971L29.1803 24.1275C30.2327 24.1753 31.6094 23.9582 32.4183 23.5824C34.1595 22.7744 35.1917 21.4258 33.4752 21.7799C29.5591 22.5879 29.29 21.2619 29.29 21.2619C33.4252 15.1264 35.1537 7.33773 33.6614 5.43114C29.5917 0.231104 22.5473 2.69007 22.4294 2.75364L22.3917 2.76067C21.618 2.60007 20.7521 2.50417 19.7792 2.48842C18.007 2.45917 16.6624 2.95304 15.6423 3.72648C15.6423 3.72648 3.07521 -1.45105 3.65993 10.2377C3.78424 12.7242 7.22393 29.0528 11.3268 24.1208C12.8264 22.3174 14.2754 20.7924 14.2754 20.7924C14.9949 21.2703 15.8566 21.5144 16.76 21.4267L16.83 21.367C16.8081 21.5909 16.8176 21.81 16.8579 22.0693C15.8012 23.2503 16.1117 23.4576 13.9987 23.8924C11.8606 24.3328 13.1167 25.1172 13.9365 25.3223C14.9307 25.5709 17.2305 25.923 18.7847 23.7478L18.7228 23.9959C19.1374 24.3278 19.1096 26.38 19.1681 27.8462C19.2268 29.3126 19.325 30.6809 19.624 31.4878C19.9229 32.2944 20.2756 34.3723 23.0527 33.7772C25.3736 33.2811 27.148 32.5653 27.3097 25.9064Z" fill="black"/>
<path d="M22.1486 35.2281C20.9204 35.2281 20.1205 34.7531 19.6348 34.2944C18.9015 33.6025 18.6107 32.7112 18.4369 32.1788L18.3618 31.9566C18.012 31.0122 17.8933 29.6524 17.823 27.9013C17.8123 27.6383 17.805 27.3675 17.7968 27.0803C17.7909 26.8702 17.7836 26.6067 17.7729 26.3311C17.3304 26.5421 16.8607 26.6905 16.3773 26.7721C15.5114 26.92 14.5804 26.8722 13.6098 26.6295C12.925 26.4582 12.2134 26.1033 11.8079 25.5551C10.6258 26.5904 9.49823 26.45 8.88398 26.245C7.80033 25.8836 6.83058 24.868 5.91905 23.1409C5.26964 21.9104 4.64161 20.3073 4.05211 18.3756C3.02555 15.0119 2.37333 11.469 2.31539 10.3057C2.13314 6.66495 3.1133 4.06114 5.22801 2.56742C8.56392 0.211105 13.6183 1.59682 15.461 2.22598C16.6991 1.47982 18.1557 1.11673 19.8015 1.14289C20.6855 1.15723 21.5273 1.23486 22.3092 1.37436C23.1248 1.11786 24.7358 0.749699 26.58 0.772761C29.9777 0.813261 32.7933 2.13739 34.7219 4.60198C36.0983 6.36036 35.4177 10.0529 34.8898 12.0976C34.1467 14.9736 32.8448 18.0325 31.2456 20.6954C31.6799 20.6985 32.309 20.6465 33.2034 20.4617C34.968 20.0975 35.484 21.0436 35.6241 21.4671C36.1852 23.1665 33.7462 24.4506 32.9854 24.8039C32.0106 25.2564 30.4213 25.532 29.1196 25.4724L29.0628 25.4688L28.7208 25.4387L28.6871 25.7239L28.6545 26.0026C28.567 29.3773 28.0849 31.5145 27.093 32.9267C26.0532 34.4072 24.6081 34.822 23.3352 35.0948C22.9009 35.1876 22.5063 35.2281 22.1486 35.2281ZM19.5639 22.9457C20.3567 23.5802 20.4262 24.7741 20.4884 27.0052C20.4962 27.2837 20.5035 27.5472 20.5134 27.7933C20.5432 28.5386 20.6132 30.2838 20.8866 31.0212C20.9251 31.1255 20.9597 31.2313 20.9963 31.3435C21.3009 32.2761 21.4536 32.7439 22.7707 32.4623C23.8763 32.2252 24.4447 32.0126 24.8896 31.3792C25.5362 30.4584 25.8979 28.6061 25.9643 25.8738L27.3095 25.9064L25.9736 25.7461L26.013 25.4125C26.1409 24.3128 26.2332 23.5186 26.9681 22.9932C27.5579 22.5719 28.2298 22.6127 28.765 22.7091C28.1769 22.2648 28.0143 21.7436 27.971 21.5299L27.8588 20.9772L28.1741 20.5095C29.9901 17.8151 31.4875 14.5037 32.2829 11.424C33.1002 8.25964 32.851 6.57917 32.6018 6.26136C29.303 2.04626 23.5827 3.78664 22.9853 3.98407L22.8843 4.03864L22.3781 4.13285L22.1188 4.07914C21.4038 3.93064 20.6096 3.84851 19.7582 3.83473C18.4206 3.81223 17.3415 4.12836 16.4566 4.7997L15.8427 5.26517L15.1303 4.97182C13.6081 4.34942 9.13739 3.09814 6.77826 4.76904C5.46876 5.69661 4.87223 7.51404 5.00498 10.171C5.04886 11.0482 5.64483 14.3689 6.62808 17.5895C7.9868 22.0403 9.22148 23.5189 9.73701 23.6907C9.82701 23.7211 10.0605 23.5397 10.2928 23.2607C11.2614 22.0995 12.2644 20.9674 13.3005 19.866L14.0795 19.0461L15.0214 19.6719C15.4011 19.9242 15.8199 20.0674 16.2499 20.0944L18.4963 18.1785L18.1709 21.4995C18.1635 21.574 18.1599 21.6755 18.1891 21.864L18.287 22.4934L17.8623 22.9682L17.8134 23.0233L19.0475 23.5928L19.5639 22.9457Z" fill="black"/>
<path d="M33.4751 21.7801C29.5587 22.5882 29.2895 21.2621 29.2895 21.2621C33.4247 15.1263 35.1533 7.33737 33.6616 5.43134C29.5919 0.231588 22.5468 2.69056 22.4293 2.7544L22.3913 2.76115C21.6176 2.60056 20.7516 2.50493 19.7782 2.48918C18.0061 2.46021 16.662 2.95381 15.6419 3.72724C15.6419 3.72724 3.07449 -1.45 3.65893 10.2385C3.78324 12.7253 7.22293 29.0538 11.3258 24.1218C12.8254 22.3184 14.2741 20.7935 14.2741 20.7935C14.9939 21.2713 15.8553 21.5155 16.7584 21.4277L16.8287 21.3681C16.8068 21.592 16.8169 21.8111 16.8569 22.0704C15.7999 23.2513 16.1104 23.4586 13.9974 23.8934C11.8593 24.3339 13.1154 25.1183 13.9355 25.3233C14.9295 25.5719 17.2295 25.9241 18.7834 23.7489L18.7213 23.9969C19.1356 24.3288 19.4264 26.1547 19.3777 27.8098C19.3288 29.465 19.2961 30.6015 19.6227 31.4892C19.9489 32.3768 20.2741 34.3736 23.0517 33.7785C25.3726 33.2813 26.5752 31.9923 26.7428 29.8424C26.8615 28.3138 27.1301 28.54 27.1472 27.1734L27.363 26.5265C27.6116 24.4545 27.4023 23.7863 28.8325 24.0971L29.1798 24.1274C30.2323 24.1752 31.6096 23.9581 32.4181 23.5824C34.1591 22.7749 35.1916 21.426 33.4751 21.7801Z" fill="#336791"/>
<path d="M22.2889 34.3988C19.9736 34.3988 19.2401 32.5654 18.94 31.8155C18.5007 30.7167 18.406 26.4524 18.5038 22.9553C18.5053 22.8964 18.5184 22.8382 18.5424 22.7844C18.5664 22.7305 18.6008 22.6819 18.6437 22.6413C18.6866 22.6008 18.7371 22.5692 18.7922 22.5483C18.8474 22.5273 18.9061 22.5175 18.9651 22.5194C19.024 22.521 19.082 22.5342 19.1358 22.5582C19.1896 22.5823 19.2381 22.6167 19.2786 22.6595C19.3191 22.7023 19.3508 22.7527 19.3718 22.8077C19.3928 22.8628 19.4027 22.9215 19.401 22.9804C19.2882 27.0138 19.4483 30.6689 19.7734 31.4823C20.2808 32.7504 21.0503 33.8597 23.2257 33.3936C25.291 32.9507 26.0644 32.1677 26.4089 30.1705C26.6733 28.638 27.1961 24.278 27.2605 23.4177C27.2649 23.3589 27.2807 23.3015 27.3072 23.2489C27.3338 23.1962 27.3704 23.1493 27.4151 23.1109C27.4598 23.0724 27.5116 23.0432 27.5676 23.0248C27.6236 23.0064 27.6827 22.9992 27.7415 23.0037C27.8601 23.0127 27.9703 23.0684 28.048 23.1585C28.1256 23.2487 28.1642 23.366 28.1555 23.4846C28.0883 24.3804 27.568 28.7319 27.2935 30.3232C26.8868 32.6821 25.8352 33.7519 23.4139 34.2711C23.0024 34.3592 22.6286 34.3985 22.2889 34.3988ZM9.73501 25.4435C9.53265 25.4429 9.3317 25.4096 9.13989 25.3451C7.63605 24.8434 6.20364 22.3942 4.88233 18.065C3.87658 14.7695 3.23927 11.3299 3.1833 10.2119C3.01764 6.89764 3.87095 4.55286 5.72017 3.24308C9.37839 0.651075 15.5324 3.11933 15.7926 3.22564C15.9028 3.27065 15.9906 3.35761 16.0367 3.46737C16.0828 3.57713 16.0834 3.70071 16.0384 3.81092C15.9934 3.92113 15.9064 4.00894 15.7967 4.05504C15.6869 4.10114 15.5633 4.10175 15.4531 4.05673C15.3938 4.03254 9.49258 1.66836 6.23711 3.97658C4.65592 5.09764 3.93002 7.18058 4.07936 10.1672C4.12633 11.1091 4.72173 14.4661 5.74042 17.8028C6.91998 21.6678 8.26239 24.1065 9.42367 24.4938C9.60592 24.5545 10.1605 24.7393 10.9534 23.7859C11.878 22.6754 12.8372 21.5943 13.8297 20.5442C13.9128 20.4613 14.025 20.4143 14.1422 20.4131C14.2595 20.412 14.3726 20.4567 14.4573 20.5379C14.542 20.6191 14.5915 20.7301 14.5954 20.8474C14.5992 20.9646 14.557 21.0787 14.4777 21.1652C14.4642 21.1792 13.1145 22.5903 11.6436 24.3599C10.9469 25.1977 10.2792 25.4435 9.73501 25.4435ZM29.2619 21.6621C29.1806 21.662 29.1008 21.6398 29.0311 21.5979C28.9613 21.5559 28.9044 21.4958 28.8662 21.424C28.828 21.3521 28.81 21.2712 28.8143 21.19C28.8185 21.1087 28.8447 21.0302 28.8901 20.9627C33.0703 14.7597 34.5376 7.26467 33.281 5.65873C31.6992 3.63767 29.4658 2.58214 26.6424 2.52111C24.5518 2.47611 22.8902 3.00992 22.6185 3.10301L22.5502 3.13086C22.2771 3.21664 22.0675 3.06701 21.9885 2.89208C21.9435 2.79185 21.9366 2.67859 21.9693 2.57368C22.002 2.46876 22.072 2.37943 22.166 2.32254C22.1789 2.31495 22.22 2.29751 22.2866 2.27304C22.7482 2.10401 24.4351 1.59776 26.5245 1.62167C29.6486 1.65486 32.2294 2.85945 33.9872 5.10579C34.8189 6.16864 34.8208 8.6172 33.9925 11.824C33.1482 15.0935 31.5595 18.6072 29.634 21.4644C29.548 21.593 29.4062 21.6621 29.2619 21.6621ZM29.4757 24.5337C28.7619 24.5337 28.122 24.433 27.739 24.2035C27.3452 23.9675 27.2701 23.6469 27.2603 23.4768C27.1528 21.5896 28.194 21.2611 28.725 21.1112C28.651 20.9992 28.5459 20.8676 28.437 20.7318C28.1274 20.3448 27.7032 19.8149 27.3764 19.0223C27.3252 18.8986 27.1649 18.6109 26.9793 18.2776C25.9727 16.4725 23.8782 12.7164 25.2237 10.7929C25.8464 9.90279 27.0865 9.55236 28.9135 9.74783C28.376 8.11039 25.8166 2.98826 19.7436 2.8887C17.9171 2.85833 16.4192 3.41998 15.2936 4.55651C12.7736 7.10154 12.8648 11.7064 12.8662 11.7526C12.8677 11.8115 12.8577 11.8701 12.8365 11.9251C12.8154 11.9802 12.7837 12.0305 12.7431 12.0732C12.7026 12.116 12.654 12.1503 12.6002 12.1743C12.5463 12.1983 12.4883 12.2114 12.4294 12.213C12.3705 12.2145 12.3118 12.2045 12.2568 12.1834C12.2018 12.1622 12.1515 12.1305 12.1087 12.0899C12.066 12.0494 12.0316 12.0008 12.0077 11.947C11.9837 11.8931 11.9705 11.8351 11.969 11.7762C11.9634 11.5717 11.8694 6.73929 14.656 3.92482C15.9602 2.60773 17.677 1.95748 19.7585 1.99151C23.6437 2.05536 26.1445 4.03057 27.5581 5.67617C29.0991 7.4697 29.8545 9.44801 29.9167 10.1084C29.9631 10.5995 29.6107 10.6976 29.5395 10.7122L29.3775 10.7159C27.5845 10.4287 26.4342 10.6281 25.9586 11.3076C24.9352 12.7704 26.9166 16.3234 27.7626 17.8408C27.9786 18.2278 28.1344 18.5076 28.2058 18.6803C28.4837 19.3542 28.8462 19.807 29.1373 20.171C29.3935 20.491 29.6155 20.7686 29.6948 21.0943C29.7316 21.159 30.2545 21.9324 33.3569 21.292C34.1346 21.1317 34.6009 21.2687 34.7435 21.6998C35.0239 22.5478 33.4506 23.537 32.5795 23.9414C31.7991 24.3042 30.5534 24.5337 29.4757 24.5337ZM28.1549 23.4028C28.2534 23.5021 28.7458 23.6734 29.7656 23.6295C30.6724 23.5907 31.6286 23.3935 32.2024 23.1272C32.9362 22.7863 33.4261 22.4052 33.6798 22.145L33.5392 22.1709C31.5555 22.5804 30.1524 22.5259 29.3688 22.0086C29.3162 21.9738 29.2655 21.9362 29.2169 21.8959C29.132 21.9293 29.0535 21.9513 28.9975 21.967C28.5532 22.0916 28.0936 22.2207 28.1549 23.4028ZM15.3406 25.9101C14.8479 25.9101 14.3292 25.8429 13.7996 25.7105C13.2509 25.5732 12.3259 25.16 12.34 24.4814C12.356 23.72 13.4633 23.4917 13.8801 23.4059C15.3859 23.0957 15.484 22.9714 15.9546 22.3737C16.0918 22.1996 16.2625 21.9828 16.4954 21.7229C16.8411 21.3359 17.2188 21.1399 17.6182 21.1399C17.8963 21.1399 18.1244 21.2341 18.2752 21.2968C18.7555 21.4959 19.1563 21.9774 19.3211 22.5531C19.4699 23.0726 19.3988 23.5727 19.1215 23.9611C18.211 25.236 16.9035 25.9101 15.3406 25.9101ZM13.3094 24.5199C13.4447 24.6245 13.7158 24.7643 14.0176 24.8397C14.4763 24.9545 14.9213 25.0127 15.3409 25.0127C16.6195 25.0127 17.646 24.4834 18.3916 23.4394C18.5471 23.2217 18.5005 22.9452 18.4588 22.7998C18.3716 22.4952 18.1551 22.2182 17.932 22.1256C17.8111 22.0756 17.7107 22.0373 17.6185 22.0373C17.569 22.0373 17.4182 22.0373 17.1645 22.3211C16.9895 22.518 16.8212 22.7208 16.66 22.9292C16.0738 23.6734 15.8052 23.9259 14.0615 24.2851C13.636 24.3723 13.4177 24.4611 13.3094 24.5199ZM16.7601 22.4499C16.6529 22.4497 16.5494 22.4113 16.4682 22.3414C16.3869 22.2716 16.3334 22.175 16.3171 22.0691C16.306 21.9946 16.2984 21.9196 16.2946 21.8444C15.1516 21.823 14.0488 21.3325 13.2115 20.459C12.1529 19.3545 11.6711 17.8242 11.89 16.2607C12.1276 14.5628 12.0387 13.064 11.9909 12.2588C11.9777 12.035 11.9681 11.8732 11.9687 11.7613C11.9695 11.6193 11.9724 11.2427 13.2312 10.6045C13.679 10.3775 14.5767 9.98154 15.5575 9.88001C17.1822 9.71211 18.2532 10.4358 18.5739 11.9179C19.4393 15.9196 18.6425 17.6895 18.0606 18.9821C17.9523 19.2229 17.8499 19.4501 17.7681 19.6703L17.6958 19.8644C17.3884 20.6887 17.1226 21.4009 17.2042 21.9327C17.2131 21.9909 17.2105 22.0504 17.1965 22.1076C17.1825 22.1649 17.1573 22.2188 17.1224 22.2663C17.0876 22.3138 17.0437 22.354 16.9933 22.3845C16.9429 22.4151 16.887 22.4354 16.8287 22.4443L16.7601 22.4499ZM12.869 11.8856L12.8864 12.2059C12.9359 13.0424 13.0282 14.5988 12.7784 16.3853C12.5981 17.6749 12.9919 18.9335 13.8593 19.838C14.5447 20.5529 15.4466 20.9475 16.3736 20.9475H16.3928C16.4965 20.5101 16.669 20.0483 16.8546 19.5508L16.9263 19.3579C17.0188 19.1092 17.1271 18.8685 17.2419 18.6137C17.8018 17.3694 18.499 15.8206 17.6961 12.1078C17.5372 11.3723 17.1516 10.9468 16.5179 10.8064C15.2163 10.519 13.2765 11.498 12.869 11.8856ZM15.5774 11.6952C15.5549 11.8538 15.868 12.2774 16.2763 12.3339C16.6839 12.391 17.0326 12.0597 17.0548 11.9011C17.077 11.7424 16.7643 11.5675 16.3559 11.5107C15.9478 11.4539 15.5991 11.5366 15.5774 11.6952ZM16.37 12.49L16.2555 12.4821C16.0024 12.447 15.7465 12.2875 15.5712 12.0552C15.5096 11.9736 15.4092 11.8156 15.4292 11.6744C15.4576 11.4674 15.7102 11.3434 16.1042 11.3434C16.1922 11.3434 16.2839 11.3498 16.3762 11.3628C16.5916 11.3926 16.7916 11.4547 16.9392 11.5371C17.1952 11.68 17.214 11.8395 17.2025 11.9219C17.171 12.1505 16.8073 12.49 16.37 12.49ZM15.7262 11.7216C15.7389 11.8195 15.9813 12.1424 16.2969 12.186L16.3703 12.191C16.6616 12.191 16.8793 11.9618 16.9049 11.8867C16.8779 11.8355 16.6906 11.7084 16.3354 11.6589C16.2589 11.6479 16.1817 11.6424 16.1045 11.6423C15.8761 11.6423 15.7549 11.6938 15.7262 11.7216ZM27.9901 11.3715C28.0123 11.5301 27.6996 11.9537 27.2915 12.0105C26.8837 12.0673 26.5346 11.7363 26.5121 11.5776C26.4908 11.419 26.8035 11.2438 27.2113 11.1873C27.6191 11.1302 27.9676 11.2131 27.9901 11.3715ZM27.1973 12.0915C26.8046 12.0915 26.4657 11.786 26.4379 11.5878C26.4055 11.3498 26.7973 11.169 27.2006 11.113C27.2895 11.1006 27.3775 11.0944 27.4622 11.0944C27.8104 11.0944 28.041 11.1965 28.0641 11.3614C28.079 11.4679 27.9971 11.6325 27.8562 11.781C27.7631 11.8786 27.5677 12.0476 27.3013 12.0844L27.1973 12.0915ZM27.4625 11.2441C27.3849 11.2441 27.3039 11.25 27.2217 11.2612C26.8165 11.3178 26.5746 11.4803 26.5864 11.5675C26.5999 11.6634 26.8586 11.9421 27.1975 11.9421L27.2811 11.9362C27.5024 11.9056 27.6686 11.761 27.748 11.6778C27.8725 11.547 27.922 11.4238 27.9161 11.3819C27.9083 11.3262 27.7586 11.2441 27.4625 11.2441ZM28.5776 20.4812C28.4963 20.4812 28.4165 20.4592 28.3468 20.4173C28.2771 20.3755 28.22 20.3155 28.1818 20.2438C28.1435 20.1721 28.1255 20.0913 28.1296 20.0101C28.1338 19.9289 28.1599 19.8503 28.2053 19.7828C29.161 18.3555 28.986 16.9 28.817 15.4924C28.7447 14.8927 28.6705 14.2726 28.6896 13.6775C28.7093 13.0652 28.7872 12.56 28.8623 12.0715C28.9514 11.4927 29.0358 10.946 29.0009 10.2968C28.9977 10.238 29.0062 10.1791 29.0258 10.1235C29.0454 10.068 29.0757 10.0168 29.115 9.97293C29.1544 9.92908 29.202 9.89342 29.2552 9.86797C29.3083 9.84252 29.3659 9.82778 29.4248 9.82461C29.4836 9.82143 29.5425 9.82987 29.5981 9.84945C29.6536 9.86904 29.7048 9.89937 29.7487 9.93873C29.8372 10.0182 29.8906 10.1296 29.897 10.2485C29.9369 10.9904 29.8416 11.6091 29.7493 12.2079C29.6782 12.67 29.6045 13.1479 29.5868 13.7061C29.5696 14.2332 29.6368 14.7929 29.708 15.3852C29.888 16.882 30.0919 18.5785 28.9511 20.282C28.9101 20.3434 28.8545 20.3937 28.7893 20.4284C28.7242 20.4631 28.6515 20.4813 28.5776 20.4812Z" fill="white"/>
</svg>
