<svg width="38" height="36" viewBox="0 0 38 36" fill="none" xmlns="http://www.w3.org/2000/svg">
<g clip-path="url(#clip0_662_5701)">
<path d="M18.8099 0.0102539C9.65717 0.0102539 10.2287 3.97943 10.2287 3.97943L10.2388 8.09162H18.9731V9.32621H6.76969C6.76969 9.32621 0.912842 8.66197 0.912842 17.897C0.912842 27.1324 6.02484 26.8048 6.02484 26.8048H9.07567V22.5193C9.07567 22.5193 8.9112 17.4073 14.1061 17.4073H22.7689C22.7689 17.4073 27.636 17.4859 27.636 12.7034V4.79585C27.636 4.79585 28.3752 0.0102539 18.8099 0.0102539ZM13.9938 2.77562C14.2002 2.77543 14.4046 2.81595 14.5954 2.89485C14.7861 2.97375 14.9594 3.08948 15.1053 3.23543C15.2513 3.38137 15.367 3.55466 15.4459 3.74538C15.5248 3.93611 15.5653 4.14051 15.5651 4.34691C15.5653 4.55331 15.5248 4.75772 15.4459 4.94844C15.367 5.13916 15.2513 5.31245 15.1053 5.4584C14.9594 5.60434 14.7861 5.72008 14.5954 5.79898C14.4046 5.87788 14.2002 5.91839 13.9938 5.91821C13.7874 5.91839 13.583 5.87788 13.3923 5.79898C13.2016 5.72008 13.0283 5.60434 12.8823 5.4584C12.7364 5.31245 12.6207 5.13916 12.5418 4.94844C12.4629 4.75772 12.4224 4.55331 12.4225 4.34691C12.4224 4.14051 12.4629 3.93611 12.5418 3.74538C12.6207 3.55466 12.7364 3.38137 12.8823 3.23543C13.0283 3.08948 13.2016 2.97375 13.3923 2.89485C13.583 2.81595 13.7874 2.77543 13.9938 2.77562Z" fill="url(#paint0_linear_662_5701)"/>
<path d="M19.0697 35.8766C28.2224 35.8766 27.6509 31.9074 27.6509 31.9074L27.6408 27.7954H18.9063V26.5608H31.1098C31.1098 26.5608 36.9666 27.225 36.9666 17.9897C36.9666 8.75447 31.8546 9.082 31.8546 9.082H28.8038V13.3674C28.8038 13.3674 28.9683 18.4794 23.7734 18.4794H15.1105C15.1105 18.4794 10.2435 18.4008 10.2435 23.1834V31.0911C10.2435 31.0911 9.50441 35.8766 19.0695 35.8766M23.8856 33.1115C23.6792 33.1117 23.4748 33.0712 23.2841 32.9923C23.0934 32.9134 22.9201 32.7976 22.7741 32.6517C22.6282 32.5058 22.5125 32.3325 22.4336 32.1417C22.3547 31.951 22.3142 31.7466 22.3143 31.5402C22.3141 31.3338 22.3546 31.1294 22.4335 30.9386C22.5124 30.7479 22.6281 30.5746 22.7741 30.4286C22.92 30.2827 23.0933 30.1669 23.2841 30.088C23.4748 30.0091 23.6792 29.9686 23.8856 29.9688C24.092 29.9686 24.2964 30.0091 24.4872 30.088C24.6779 30.1669 24.8512 30.2826 24.9971 30.4286C25.1431 30.5745 25.2588 30.7478 25.3377 30.9385C25.4166 31.1293 25.4571 31.3337 25.4569 31.5401C25.4571 31.7465 25.4166 31.9509 25.3377 32.1416C25.2588 32.3323 25.1431 32.5056 24.9971 32.6516C24.8512 32.7975 24.6779 32.9132 24.4872 32.9921C24.2964 33.071 24.092 33.1117 23.8856 33.1115Z" fill="url(#paint1_linear_662_5701)"/>
</g>
<defs>
<linearGradient id="paint0_linear_662_5701" x1="347.39" y1="322.608" x2="2134.11" y2="2091.51" gradientUnits="userSpaceOnUse">
<stop stop-color="#387EB8"/>
<stop offset="1" stop-color="#366994"/>
</linearGradient>
<linearGradient id="paint1_linear_662_5701" x1="521.644" y1="560.516" x2="2440.38" y2="2374.36" gradientUnits="userSpaceOnUse">
<stop stop-color="#FFE052"/>
<stop offset="1" stop-color="#FFC331"/>
</linearGradient>
<clipPath id="clip0_662_5701">
<rect width="36.1412" height="36" fill="white" transform="translate(0.892334)"/>
</clipPath>
</defs>
</svg>
