<svg xmlns="http://www.w3.org/2000/svg" width="41" height="36" viewBox="0 0 41 36" fill="none">
  <g clip-path="url(#clip0_540_67)">
    <path d="M33.468 11.6564C33.0379 11.5088 32.604 11.3721 32.167 11.2463C32.2404 10.9463 32.308 10.65 32.368 10.3588C33.3529 5.5776 32.709 1.72576 30.5097 0.457551C28.401 -0.758238 24.9525 0.509499 21.4696 3.5406C21.1264 3.83987 20.7907 4.14776 20.463 4.46397C20.2437 4.2537 20.0204 4.04751 19.7934 3.8455C16.1432 0.604552 12.4845 -0.761396 10.2875 0.510446C8.18073 1.73003 7.55689 5.35103 8.44362 9.88229C8.53184 10.3311 8.63146 10.7775 8.74236 11.2212C8.22447 11.3684 7.72473 11.525 7.24647 11.6918C2.96689 13.1839 0.233887 15.5221 0.233887 17.9476C0.233887 20.4526 3.16789 22.9651 7.62526 24.4887C7.98662 24.6117 8.351 24.7256 8.71804 24.8305C8.59884 25.3084 8.49301 25.7895 8.40068 26.2733C7.55531 30.726 8.21547 34.2614 10.3166 35.4732C12.4867 36.7247 16.129 35.4385 19.6755 32.3382C19.963 32.0862 20.2443 31.827 20.5189 31.5609C20.8738 31.9033 21.2382 32.2358 21.6116 32.5579C25.047 35.514 28.4399 36.7077 30.5389 35.4925C32.707 34.2374 33.4117 30.4394 32.4968 25.8186C32.4248 25.4566 32.3439 25.0964 32.2545 24.7383C32.5103 24.6625 32.7613 24.5845 33.006 24.5033C37.6399 22.9681 40.6549 20.486 40.6549 17.9476C40.6549 15.5133 37.8337 13.1592 33.468 11.6564ZM32.463 22.8644C32.242 22.9375 32.0153 23.0081 31.7841 23.0768C31.2725 21.4572 30.5822 19.7352 29.7373 17.9559C30.5435 16.2191 31.2073 14.519 31.7045 12.9101C32.118 13.0298 32.5193 13.1559 32.9061 13.289C36.6466 14.5768 38.9282 16.4806 38.9282 17.9476C38.9282 19.5101 36.4641 21.5386 32.463 22.8644ZM30.8029 26.154C31.2075 28.1971 31.2651 30.0445 30.9971 31.4888C30.7565 32.7865 30.2724 33.6516 29.6737 33.9982C28.3999 34.7356 25.6758 33.7771 22.7378 31.2489C22.3905 30.9495 22.0516 30.6404 21.7215 30.3221C22.8605 29.0764 23.9988 27.6284 25.1097 26.0201C27.0638 25.8467 28.9099 25.5631 30.5841 25.1761C30.6647 25.5003 30.7377 25.8263 30.8029 26.154ZM14.0143 33.8708C12.7698 34.3102 11.7785 34.3228 11.1793 33.9773C9.90431 33.242 9.37425 30.4032 10.0973 26.5954C10.1832 26.1455 10.2816 25.698 10.3924 25.2535C12.048 25.6198 13.8807 25.8832 15.8394 26.042C16.9579 27.6158 18.129 29.0622 19.3093 30.3289C19.0585 30.5716 18.8017 30.8081 18.5393 31.0381C16.9709 32.409 15.3994 33.3816 14.0143 33.8708ZM8.18389 22.8548C6.21289 22.181 4.58515 21.3055 3.46947 20.3501C2.46683 19.4916 1.96078 18.6391 1.96078 17.9476C1.96078 16.4757 4.15504 14.5983 7.81489 13.3223C8.25904 13.1676 8.72389 13.0216 9.20625 12.8845C9.71215 14.5298 10.3756 16.25 11.1763 17.9896C10.3652 19.7548 9.69226 21.5026 9.18147 23.1672C8.84643 23.0713 8.5138 22.9671 8.18389 22.8548ZM10.1383 9.55055C9.37868 5.66839 9.88315 2.73992 11.1528 2.00492C12.505 1.22208 15.4952 2.33824 18.6469 5.13676C18.8525 5.31966 19.0546 5.50627 19.2534 5.6965C18.079 6.9576 16.9186 8.39334 15.81 9.95776C13.909 10.134 12.0893 10.4169 10.4162 10.796C10.3131 10.3833 10.2205 9.96793 10.1383 9.55055ZM27.5741 13.8562C27.179 13.1736 26.7691 12.4996 26.3449 11.8347C27.6346 11.9978 28.8703 12.2142 30.0307 12.4789C29.6824 13.5955 29.2481 14.7628 28.737 15.9597C28.3635 15.2508 27.9757 14.5495 27.5741 13.8562ZM20.4638 6.93076C21.2603 7.79366 22.0579 8.75697 22.8425 9.80224C21.2509 9.72707 19.6567 9.72675 18.0651 9.80129C18.8505 8.76566 19.6549 7.8036 20.4638 6.93076ZM13.3079 13.8679C12.9113 14.5556 12.5308 15.2526 12.1668 15.9581C11.664 14.7655 11.2338 13.5928 10.8825 12.4604C12.0357 12.2024 13.2656 11.9914 14.547 11.8313C14.1181 12.5003 13.7049 13.1795 13.3079 13.8679ZM14.5838 24.1866C13.2599 24.0388 12.0116 23.8388 10.8586 23.5877C11.2155 22.4351 11.6552 21.2374 12.1688 20.0193C12.5343 20.7253 12.9164 21.4227 13.3147 22.1108C13.7243 22.8181 14.1484 23.511 14.5838 24.1866ZM20.5115 29.0861C19.693 28.2031 18.8767 27.2262 18.0795 26.1756C18.8535 26.2059 19.6425 26.2214 20.4444 26.2214C21.2683 26.2214 22.0827 26.2029 22.8844 26.1672C22.0973 27.2368 21.3026 28.2151 20.5115 29.0861ZM28.7533 19.9571C29.2936 21.1887 29.749 22.38 30.1106 23.5129C28.9387 23.7803 27.6733 23.9957 26.34 24.1557C26.7673 23.4784 27.181 22.7927 27.5809 22.0989C27.9876 21.3938 28.3785 20.6796 28.7533 19.9571ZM26.0852 21.2362C25.4729 22.2998 24.8262 23.3433 24.1461 24.3649C22.9141 24.4521 21.6795 24.4955 20.4444 24.4948C19.1865 24.4948 17.9629 24.4557 16.7847 24.3792C16.0869 23.36 15.4278 22.3147 14.809 21.2457C14.1931 20.1823 13.6179 19.0958 13.0845 17.9888C13.6166 16.8814 14.1901 15.7945 14.8039 14.7303L14.8038 14.7304C15.4174 13.666 16.0711 12.6252 16.7637 11.6103C17.9658 11.5193 19.1985 11.472 20.4443 11.472C21.6957 11.472 22.9301 11.5198 24.1319 11.6114C24.8175 12.6247 25.4671 13.662 26.0795 14.7211C26.6954 15.783 27.2765 16.8646 27.822 17.9643C27.2821 19.0752 26.7028 20.1665 26.0852 21.2362ZM29.6473 1.95345C31.0008 2.73408 31.5272 5.88202 30.6768 10.0102C30.6225 10.2736 30.5615 10.5418 30.4952 10.8139C28.818 10.4267 26.997 10.1389 25.0905 9.95997C23.9798 8.37834 22.8289 6.94039 21.6736 5.69555C21.9764 5.40368 22.2864 5.11939 22.6033 4.84292C25.5875 2.24603 28.3766 1.22066 29.6473 1.95345ZM20.4444 14.3381C22.4378 14.3381 24.0539 15.9541 24.0539 17.9476C24.0539 19.941 22.4378 21.557 20.4444 21.557C18.451 21.557 16.8349 19.941 16.8349 17.9476C16.8349 15.9541 18.451 14.3381 20.4444 14.3381Z" fill="#00D8FF"/>
  </g>
  <defs>
    <clipPath id="clip0_540_67">
      <rect width="40.4211" height="36" fill="white" transform="translate(0.233887)"/>
    </clipPath>
  </defs>
</svg>