<svg xmlns="http://www.w3.org/2000/svg" width="32" height="32" viewBox="0 0 32 32" fill="none">
  <path d="M4 25.3333V13.3333C4 12.6 4.26133 11.9724 4.784 11.4507C5.30667 10.9289 5.93422 10.6676 6.66667 10.6667H10.6667V6.66667C10.6667 5.93333 10.928 5.30578 11.4507 4.784C11.9733 4.26222 12.6009 4.00089 13.3333 4H25.3333C26.0667 4 26.6947 4.26133 27.2173 4.784C27.74 5.30667 28.0009 5.93422 28 6.66667V25.3333C28 26.0667 27.7391 26.6947 27.2173 27.2173C26.6956 27.74 26.0676 28.0009 25.3333 28H6.66667C5.93333 28 5.30578 27.7391 4.784 27.2173C4.26222 26.6956 4.00089 26.0676 4 25.3333ZM21.3333 25.3333H25.3333V6.66667H13.3333V10.6667H18.6667C19.4 10.6667 20.028 10.928 20.5507 11.4507C21.0733 11.9733 21.3342 12.6009 21.3333 13.3333V25.3333ZM13.3333 25.3333H18.6667V13.3333H13.3333V25.3333ZM6.66667 25.3333H10.6667V13.3333H6.66667V25.3333Z" fill="#9747FF"/>
</svg>