<svg xmlns="http://www.w3.org/2000/svg" width="32" height="32" viewBox="0 0 32 32" fill="none">
  <path fill-rule="evenodd" clip-rule="evenodd" d="M18.6666 9.3335C18.313 9.3335 17.9738 9.47397 17.7238 9.72402C17.4737 9.97407 17.3333 10.3132 17.3333 10.6668V21.3335C17.3333 21.6871 17.4737 22.0263 17.7238 22.2763C17.9738 22.5264 18.313 22.6668 18.6666 22.6668H23.9999C24.3535 22.6668 24.6927 22.5264 24.9427 22.2763C25.1928 22.0263 25.3333 21.6871 25.3333 21.3335V10.6668C25.3333 10.3132 25.1928 9.97407 24.9427 9.72402C24.6927 9.47397 24.3535 9.3335 23.9999 9.3335H18.6666ZM22.6666 12.0002H19.9999V20.0002H22.6666V12.0002Z" fill="#9747FF"/>
  <path d="M7.99984 9.3335C7.64622 9.3335 7.30708 9.47397 7.05703 9.72402C6.80698 9.97407 6.6665 10.3132 6.6665 10.6668C6.6665 11.0205 6.80698 11.3596 7.05703 11.6096C7.30708 11.8597 7.64622 12.0002 7.99984 12.0002H13.3332C13.6868 12.0002 14.0259 11.8597 14.276 11.6096C14.526 11.3596 14.6665 11.0205 14.6665 10.6668C14.6665 10.3132 14.526 9.97407 14.276 9.72402C14.0259 9.47397 13.6868 9.3335 13.3332 9.3335H7.99984ZM7.99984 14.6668C7.64622 14.6668 7.30708 14.8073 7.05703 15.0574C6.80698 15.3074 6.6665 15.6465 6.6665 16.0002C6.6665 16.3538 6.80698 16.6929 7.05703 16.943C7.30708 17.193 7.64622 17.3335 7.99984 17.3335H13.3332C13.6868 17.3335 14.0259 17.193 14.276 16.943C14.526 16.6929 14.6665 16.3538 14.6665 16.0002C14.6665 15.6465 14.526 15.3074 14.276 15.0574C14.0259 14.8073 13.6868 14.6668 13.3332 14.6668H7.99984ZM6.6665 21.3335C6.6665 20.9799 6.80698 20.6407 7.05703 20.3907C7.30708 20.1406 7.64622 20.0002 7.99984 20.0002H13.3332C13.6868 20.0002 14.0259 20.1406 14.276 20.3907C14.526 20.6407 14.6665 20.9799 14.6665 21.3335C14.6665 21.6871 14.526 22.0263 14.276 22.2763C14.0259 22.5264 13.6868 22.6668 13.3332 22.6668H7.99984C7.64622 22.6668 7.30708 22.5264 7.05703 22.2763C6.80698 22.0263 6.6665 21.6871 6.6665 21.3335Z" fill="#9747FF"/>
  <path fill-rule="evenodd" clip-rule="evenodd" d="M5.33325 4C4.27239 4 3.25497 4.42143 2.50482 5.17157C1.75468 5.92172 1.33325 6.93913 1.33325 8V24C1.33325 25.0609 1.75468 26.0783 2.50482 26.8284C3.25497 27.5786 4.27239 28 5.33325 28H26.6666C27.7275 28 28.7449 27.5786 29.495 26.8284C30.2452 26.0783 30.6666 25.0609 30.6666 24V8C30.6666 6.93913 30.2452 5.92172 29.495 5.17157C28.7449 4.42143 27.7275 4 26.6666 4H5.33325ZM26.6666 6.66667H5.33325C4.97963 6.66667 4.64049 6.80714 4.39044 7.05719C4.14039 7.30724 3.99992 7.64638 3.99992 8V24C3.99992 24.3536 4.14039 24.6928 4.39044 24.9428C4.64049 25.1929 4.97963 25.3333 5.33325 25.3333H26.6666C27.0202 25.3333 27.3593 25.1929 27.6094 24.9428C27.8594 24.6928 27.9999 24.3536 27.9999 24V8C27.9999 7.64638 27.8594 7.30724 27.6094 7.05719C27.3593 6.80714 27.0202 6.66667 26.6666 6.66667Z" fill="#9747FF"/>
</svg>