<svg xmlns="http://www.w3.org/2000/svg" width="20" height="20" viewBox="0 0 20 20" fill="none">
  <path d="M2.5 16.7308V3.84583C2.5 3.4625 2.62861 3.1425 2.88583 2.88583C3.1425 2.62861 3.4625 2.5 3.84583 2.5H16.1542C16.5375 2.5 16.8575 2.62861 17.1142 2.88583C17.3714 3.1425 17.5 3.4625 17.5 3.84583V12.8208C17.5 13.2042 17.3717 13.5244 17.115 13.7817C16.8578 14.0383 16.5375 14.1667 16.1542 14.1667H5.06417L2.5 16.7308ZM7.93083 11.3942L10 10.1392L12.0692 11.3942L11.5192 9.04L13.3492 7.46917L10.9442 7.25667L10 5.04833L9.05583 7.25667L6.65083 7.46917L8.48083 9.04L7.93083 11.3942Z" fill="#F8F5F9"/>
</svg>