<svg xmlns="http://www.w3.org/2000/svg" width="37" height="36" viewBox="0 0 37 36" fill="none">
  <g clip-path="url(#clip0_540_62)">
    <path d="M18.9641 7.20068C14.164 7.20068 11.165 9.59975 9.96411 14.3998C11.7635 12.0005 13.8642 11.1008 16.2635 11.7007C17.6335 12.0421 18.6125 13.0355 19.6968 14.1363C21.4613 15.927 23.5038 18.0001 27.9641 18.0001C32.7639 18.0001 35.7632 15.6008 36.9641 10.7996C35.1644 13.2003 33.064 14.1 30.6644 13.5001C29.2947 13.1584 28.3168 12.1653 27.2312 11.0645C25.4677 9.27378 23.4259 7.20068 18.9641 7.20068ZM9.96411 18.0001C5.1643 18.0001 2.16505 20.3995 0.964111 25.2007C2.76355 22.7999 4.86392 21.9002 7.26355 22.5001C8.63352 22.8418 9.61255 23.8349 10.6968 24.9357C12.4613 26.7265 14.5038 28.7996 18.9641 28.7996C23.7639 28.7996 26.7632 26.4005 27.9641 21.6004C26.1644 23.9997 24.064 24.8995 21.6644 24.2996C20.2947 23.9581 19.3168 22.9647 18.2312 21.8639C16.4677 20.0732 14.4259 18.0001 9.96411 18.0001Z" fill="#38BDF8"/>
  </g>
  <defs>
    <clipPath id="clip0_540_62">
      <rect width="36" height="36" fill="white" transform="translate(0.962891)"/>
    </clipPath>
  </defs>
</svg>