<svg xmlns="http://www.w3.org/2000/svg" width="20" height="20" viewBox="0 0 20 20" fill="none">
  <path d="M18.3332 4.83334C17.7068 5.10509 17.0444 5.28473 16.3665 5.36667C17.0816 4.93944 17.6176 4.26733 17.8748 3.47501C17.2028 3.87506 16.4671 4.15692 15.6998 4.30834C15.187 3.75215 14.504 3.38192 13.758 3.25572C13.012 3.12951 12.2453 3.25447 11.578 3.611C10.9107 3.96752 10.3806 4.53545 10.0709 5.2257C9.76113 5.91596 9.68925 6.6895 9.8665 7.42501C8.50769 7.35628 7.17854 7.00247 5.96538 6.38656C4.75223 5.77065 3.68221 4.90642 2.82484 3.85001C2.52412 4.37515 2.3661 4.96986 2.3665 5.57501C2.36544 6.13699 2.50335 6.69052 2.76797 7.18631C3.03258 7.6821 3.41569 8.10477 3.88317 8.41667C3.33982 8.40189 2.80808 8.25609 2.33317 7.99167V8.03334C2.33724 8.82075 2.61317 9.58258 3.11427 10.19C3.61537 10.7974 4.31088 11.213 5.08317 11.3667C4.78588 11.4571 4.47723 11.5048 4.1665 11.5083C3.95141 11.5058 3.73686 11.4863 3.52484 11.45C3.74476 12.1274 4.17036 12.7193 4.7424 13.1435C5.31444 13.5677 6.00448 13.803 6.7165 13.8167C5.51417 14.7627 4.02974 15.2791 2.49984 15.2833C2.22128 15.2843 1.94295 15.2676 1.6665 15.2333C3.22853 16.2419 5.04885 16.7773 6.90817 16.775C8.19125 16.7883 9.46412 16.5459 10.6524 16.0617C11.8408 15.5776 12.9207 14.8616 13.8292 13.9554C14.7377 13.0493 15.4565 11.9712 15.9436 10.7841C16.4308 9.59702 16.6765 8.32478 16.6665 7.04167C16.6665 6.90001 16.6665 6.75001 16.6665 6.60001C17.3204 6.11235 17.8844 5.51453 18.3332 4.83334V4.83334Z" fill="white"/>
</svg>