<svg xmlns="http://www.w3.org/2000/svg" width="32" height="32" viewBox="0 0 32 32" fill="none">
  <g clip-path="url(#clip0_509_5258)">
    <path fill-rule="evenodd" clip-rule="evenodd" d="M16.0001 2.6665C23.3641 2.6665 29.3334 8.63584 29.3334 15.9998C29.3381 19.077 28.2739 22.0603 26.3228 24.4398L26.3494 24.4692L26.1734 24.6185C24.9231 26.0975 23.3649 27.2856 21.6077 28.0999C19.8505 28.9143 17.9368 29.3352 16.0001 29.3332C12.0668 29.3332 8.53343 27.6305 6.09343 24.9238L5.82676 24.6172L5.65076 24.4705L5.67743 24.4385C3.72644 22.0594 2.66226 19.0766 2.66676 15.9998C2.66676 8.63584 8.6361 2.6665 16.0001 2.6665ZM16.0001 22.6665C13.5201 22.6665 11.2788 23.4558 9.60943 24.5412C11.4526 25.9242 13.6957 26.6702 16.0001 26.6665C18.3045 26.6702 20.5475 25.9242 22.3908 24.5412C20.4833 23.3189 18.2656 22.6683 16.0001 22.6665ZM16.0001 5.33317C13.9928 5.33311 12.0262 5.89946 10.3264 6.9671C8.62657 8.03475 7.2625 9.56037 6.39098 11.3686C5.51945 13.1768 5.17583 15.1943 5.39963 17.1891C5.62343 19.1839 6.40555 21.075 7.6561 22.6452C9.81743 21.0945 12.7668 19.9998 16.0001 19.9998C19.2334 19.9998 22.1828 21.0945 24.3441 22.6452C25.5946 21.075 26.3768 19.1839 26.6006 17.1891C26.8244 15.1943 26.4807 13.1768 25.6092 11.3686C24.7377 9.56037 23.3736 8.03475 21.6738 6.9671C19.974 5.89946 18.0074 5.33311 16.0001 5.33317ZM16.0001 7.99984C17.4146 7.99984 18.7711 8.56174 19.7713 9.56193C20.7715 10.5621 21.3334 11.9187 21.3334 13.3332C21.3334 14.7477 20.7715 16.1042 19.7713 17.1044C18.7711 18.1046 17.4146 18.6665 16.0001 18.6665C14.5856 18.6665 13.2291 18.1046 12.2289 17.1044C11.2287 16.1042 10.6668 14.7477 10.6668 13.3332C10.6668 11.9187 11.2287 10.5621 12.2289 9.56193C13.2291 8.56174 14.5856 7.99984 16.0001 7.99984ZM16.0001 10.6665C15.2929 10.6665 14.6146 10.9475 14.1145 11.4476C13.6144 11.9476 13.3334 12.6259 13.3334 13.3332C13.3334 14.0404 13.6144 14.7187 14.1145 15.2188C14.6146 15.7189 15.2929 15.9998 16.0001 15.9998C16.7073 15.9998 17.3856 15.7189 17.8857 15.2188C18.3858 14.7187 18.6668 14.0404 18.6668 13.3332C18.6668 12.6259 18.3858 11.9476 17.8857 11.4476C17.3856 10.9475 16.7073 10.6665 16.0001 10.6665Z" fill="#9747FF"/>
  </g>
  <defs>
    <clipPath id="clip0_509_5258">
      <rect width="32" height="32" fill="white"/>
    </clipPath>
  </defs>
</svg>